<svg xmlns="http://www.w3.org/2000/svg" width="483" height="36" viewBox="0 0 483 36"><path fill="#fff" d="M0 35.4V.6h3.16l21.81 28.44V.6h3.55v34.8h-3.11L3.55 6.86V35.4zM39.5 5.17A16.57 16.57 0 0 1 51.93 0c4.99 0 9.08 1.74 12.39 5.17C67.62 8.6 69.3 12.88 69.3 18s-1.68 9.45-4.98 12.88C61.01 34.31 56.92 36 51.93 36c-4.98 0-9.12-1.69-12.43-5.12-3.31-3.43-4.93-7.76-4.93-12.88 0-5.12 1.62-9.4 4.93-12.83zm2.71 23.22a12.83 12.83 0 0 0 9.72 4.18 12.8 12.8 0 0 0 9.72-4.18A14.6 14.6 0 0 0 65.6 18a14.6 14.6 0 0 0-3.95-10.39 12.8 12.8 0 0 0-9.72-4.18c-3.84 0-7.1 1.39-9.72 4.18A14.64 14.64 0 0 0 38.27 18c0 4.13 1.33 7.61 3.94 10.39zm36.59 3.58c-2.61-2.68-3.9-6.46-3.9-11.38V.6h3.66v20.04c0 7.55 3.99 11.93 10.46 11.93 6.46 0 10.46-4.38 10.46-11.93V.6h3.65v19.99c0 4.92-1.33 8.7-3.95 11.38C96.57 34.66 93.21 36 89.02 36c-4.2 0-7.6-1.34-10.22-4.03zm43.3 3.63L106.9.6h4l12.93 29.93L136.76.6h3.99l-15.24 35zm22.97-.2V.6h23.69v3.33h-20.04v11.14h16.43v3.33h-16.43v13.67h20.78v3.33zm29.73 0H171l15.4-35h3.4l15.45 35h-3.85l-4.29-9.59H179zm13.28-30.38l-7.85 17.55h15.69zM222.89 36c4.19 0 7.55-1.34 10.16-4.03 2.62-2.68 3.95-6.46 3.95-11.38V.6h-3.65v20.04c0 7.55-4 11.93-10.46 11.93-6.47 0-10.46-4.38-10.46-11.93V.6h-3.65v19.99c0 4.92 1.28 8.7 3.89 11.38 2.62 2.69 6.02 4.03 10.22 4.03z"/><path fill="#25d0fe" d="M258.96 30.93C255.67 27.5 254 23.22 254 18s1.67-9.5 4.96-12.88A16.35 16.35 0 0 1 271.27 0c3.73 0 7.02.9 9.82 2.73v2.49c-3-2.04-6.24-3.03-9.77-3.03-4.22 0-7.8 1.49-10.7 4.52-2.89 2.99-4.31 6.77-4.31 11.29s1.42 8.3 4.31 11.34a14.4 14.4 0 0 0 10.75 4.47c4.07 0 7.56-1.19 10.5-3.63v2.54c-2.84 2.19-6.38 3.28-10.6 3.28-4.9 0-9.03-1.69-12.31-5.07zm31.78-1.64a13.8 13.8 0 0 0 10.5 4.52 13.8 13.8 0 0 0 10.51-4.52c2.84-3.04 4.26-6.77 4.26-11.29s-1.42-8.25-4.26-11.29a13.8 13.8 0 0 0-10.51-4.52 13.8 13.8 0 0 0-10.5 4.52c-2.84 3.04-4.27 6.77-4.27 11.29s1.43 8.25 4.27 11.29zm10.5 6.71a16.2 16.2 0 0 1-12.21-5.12c-3.24-3.43-4.86-7.71-4.86-12.88 0-5.12 1.62-9.4 4.86-12.83A16.25 16.25 0 0 1 301.24 0c4.86 0 8.89 1.74 12.17 5.17 3.29 3.43 4.91 7.71 4.91 12.83s-1.62 9.45-4.91 12.88A16.1 16.1 0 0 1 301.24 36zm22.57-.6V.6h2.01l23.4 30.83V.6h2.26v34.8h-1.96L326.06 4.52V35.4zm45.87 0h-2.26V2.73H355.1V.6h26.89v2.13h-12.31zm18.54-6.11a13.78 13.78 0 0 0 10.5 4.52 13.8 13.8 0 0 0 10.5-4.52c2.84-3.04 4.27-6.77 4.27-11.29s-1.43-8.25-4.27-11.29a13.8 13.8 0 0 0-10.5-4.52c-4.17 0-7.66 1.49-10.5 4.52-2.85 3.04-4.27 6.77-4.27 11.29s1.42 8.25 4.27 11.29zm10.5 6.71c-4.86 0-8.93-1.69-12.22-5.12-3.24-3.43-4.86-7.71-4.86-12.88 0-5.12 1.62-9.4 4.86-12.83A16.27 16.27 0 0 1 398.72 0c4.86 0 8.88 1.74 12.17 5.17 3.28 3.43 4.9 7.71 4.9 12.83s-1.62 9.45-4.9 12.88A16.12 16.12 0 0 1 398.72 36zm25.8-4.03c-2.5-2.68-3.78-6.51-3.78-11.43V.6H423v19.94c0 8.35 4.36 13.27 11.48 13.27 7.07 0 11.43-4.92 11.43-13.27V.6h2.26v19.94c0 4.92-1.28 8.7-3.78 11.43-2.5 2.69-5.84 4.03-9.91 4.03-4.12 0-7.46-1.34-9.96-4.03zm32.33 3.43h-2.26V.6h15.21c6.53 0 10.45 3.63 10.45 9.15 0 4.97-3.09 8.5-8.54 9.15L483 35.4h-2.65l-11.24-16.36h-12.26zm0-32.67v14.18h12.75c5.3 0 8.39-2.54 8.39-7.11 0-4.43-3.09-7.07-8.39-7.07z"/></svg>