<?xml version="1.0" encoding="UTF-8"?>
<svg width="465px" height="36px" viewBox="0 0 465 36" version="1.1" xmlns="http://www.w3.org/2000/svg" xmlns:xlink="http://www.w3.org/1999/xlink">
    <!-- Generator: Sketch 44.1 (41455) - http://www.bohemiancoding.com/sketch -->
    <title>Group 5</title>
    <desc>Created with Sketch.</desc>
    <defs></defs>
    <g id="Page-1" stroke="none" stroke-width="1" fill="none" fill-rule="evenodd">
        <g id="1280" transform="translate(-415.000000, -3578.000000)">
            <g id="Group-5" transform="translate(415.000000, 3578.000000)">
                <path d="M3.55257779,35.4033149 L3.55257779,6.86187845 L25.4107995,35.4033149 L28.519305,35.4033149 L28.519305,0.596685083 L24.9667272,0.596685083 L24.9667272,29.038674 L3.15784692,0.596685083 L0,0.596685083 L0,35.4033149 L3.55257779,35.4033149 Z M37.5,5.17127072 C40.805871,1.74033149 44.9505451,0 49.9340223,0 C54.9174994,0 59.0128322,1.74033149 62.3187032,5.17127072 C65.6245742,8.60220994 67.3021803,12.878453 67.3021803,18 C67.3021803,23.121547 65.6245742,27.4475138 62.3187032,30.878453 C59.0128322,34.3093923 54.9174994,36 49.9340223,36 C44.9505451,36 40.805871,34.3093923 37.5,30.878453 C34.194129,27.4475138 32.5658642,23.121547 32.5658642,18 C32.5658642,12.878453 34.194129,8.60220994 37.5,5.17127072 Z M40.2137747,28.3922652 C42.8288667,31.1767956 46.0853963,32.5690608 49.9340223,32.5690608 C53.7826482,32.5690608 57.0391778,31.1767956 59.6542698,28.3922652 C62.2693618,25.6077348 63.6015785,22.1270718 63.6015785,18 C63.6015785,13.8729282 62.2693618,10.3922652 59.6542698,7.60773481 C57.0391778,4.82320442 53.7826482,3.43093923 49.9340223,3.43093923 C46.0853963,3.43093923 42.8288667,4.82320442 40.2137747,7.60773481 C37.5986827,10.3922652 36.266466,13.8729282 36.266466,18 C36.266466,22.1270718 37.5986827,25.6077348 40.2137747,28.3922652 Z M85.0162957,36 C89.2103112,36 92.5655235,34.6574586 95.1806155,31.9723757 C97.7957075,29.2872928 99.1279241,25.5082873 99.1279241,20.5856354 L99.1279241,0.596685083 L95.4766636,0.596685083 L95.4766636,20.6353591 C95.4766636,28.1933702 91.4800136,32.5690608 85.0162957,32.5690608 C78.5525778,32.5690608 74.5559278,28.1933702 74.5559278,20.6353591 L74.5559278,0.596685083 L70.9046673,0.596685083 L70.9046673,20.5856354 C70.9046673,25.5082873 72.1875426,29.2872928 74.8026346,31.9723757 C77.4177266,34.6574586 80.8222803,36 85.0162957,36 Z M119.506473,35.6022099 L134.752953,0.596685083 L130.756303,0.596685083 L117.828867,30.5303867 L104.901431,0.596685083 L100.904781,0.596685083 L116.101919,35.6022099 L119.506473,35.6022099 Z M160.496536,32.0718232 L139.723825,32.0718232 L139.723825,18.3977901 L156.154497,18.3977901 L156.154497,15.0662983 L139.723825,15.0662983 L139.723825,3.9281768 L159.756416,3.9281768 L159.756416,0.596685083 L136.072564,0.596685083 L136.072564,35.4033149 L159,35.4033149 L160.496536,32.0718232 Z M162.802975,35.4033149 L159.003691,35.4033149 L174.398194,0.397790055 L177.802748,0.397790055 L193.246593,35.4033149 L189.397967,35.4033149 L185.105269,25.8066298 L166.996991,25.8066298 L162.802975,35.4033149 Z M176.075801,5.02209945 L168.230525,22.5745856 L183.921077,22.5745856 L176.075801,5.02209945 Z M205.888372,36 C210.082387,36 213.437599,34.6574586 216.052691,31.9723757 C218.667783,29.2872928 220,25.5082873 220,20.5856354 L220,0.596685083 L216.348739,0.596685083 L216.348739,20.6353591 C216.348739,28.1933702 212.352089,32.5690608 205.888372,32.5690608 C199.424654,32.5690608 195.428004,28.1933702 195.428004,20.6353591 L195.428004,0.596685083 L191.776743,0.596685083 L191.776743,20.5856354 C191.776743,25.5082873 193.059618,29.2872928 195.67471,31.9723757 C198.289802,34.6574586 201.694356,36 205.888372,36 Z" id="Nouveau-Copy" fill="#6D6E71"></path>
                <path d="M253.272246,36 C257.492169,36 261.025129,34.9060773 263.871124,32.718232 L263.871124,30.1823204 C260.926991,32.6187845 257.4431,33.8121547 253.370383,33.8121547 C249.101391,33.8121547 245.519363,32.320442 242.624299,29.3370166 C239.729235,26.3038674 238.306237,22.5248619 238.306237,18 C238.306237,13.4751381 239.729235,9.6961326 242.624299,6.71270718 C245.519363,3.67955801 249.101391,2.1878453 253.321314,2.1878453 C256.854274,2.1878453 260.09282,3.18232044 263.086022,5.22099448 L263.086022,2.73480663 C260.289095,0.895027624 257.00148,0 253.272246,0 C248.365358,0 244.243572,1.69060773 240.955957,5.12154696 C237.668342,8.50276243 236,12.7790055 236,18 C236,23.2209945 237.668342,27.4972376 240.955957,30.9281768 C244.243572,34.3093923 248.365358,36 253.272246,36 Z M272.743669,29.2872928 C275.589664,32.320442 279.073555,33.8121547 283.244409,33.8121547 C287.415264,33.8121547 290.899155,32.320442 293.74515,29.2872928 C296.591145,26.2541436 298.014142,22.5248619 298.014142,18 C298.014142,13.4751381 296.591145,9.74585635 293.74515,6.71270718 C290.899155,3.67955801 287.415264,2.1878453 283.244409,2.1878453 C279.073555,2.1878453 275.589664,3.67955801 272.743669,6.71270718 C269.897674,9.74585635 268.474677,13.4751381 268.474677,18 C268.474677,22.5248619 269.897674,26.2541436 272.743669,29.2872928 Z M283.244409,36 C278.38659,36 274.313873,34.3093923 271.026258,30.878453 C267.787712,27.4475138 266.168439,23.1712707 266.168439,18 C266.168439,12.878453 267.787712,8.60220994 271.026258,5.17127072 C274.313873,1.74033149 278.38659,0 283.244409,0 C288.102228,0 292.125877,1.74033149 295.413492,5.17127072 C298.701106,8.60220994 300.320379,12.878453 300.320379,18 C300.320379,23.121547 298.701106,27.4475138 295.413492,30.878453 C292.125877,34.3093923 288.102228,36 283.244409,36 Z M308.064341,35.4033149 L308.064341,4.52486188 L331.519265,35.4033149 L333.48202,35.4033149 L333.48202,0.596685083 L331.224852,0.596685083 L331.224852,31.4254144 L307.818996,0.596685083 L305.807172,0.596685083 L305.807172,35.4033149 L308.064341,35.4033149 Z M351.677653,35.4033149 L349.420485,35.4033149 L349.420485,2.73480663 L337.104196,2.73480663 L337.104196,0.596685083 L363.993942,0.596685083 L363.993942,2.73480663 L351.677653,2.73480663 L351.677653,35.4033149 Z M370.216768,29.2872928 C373.062763,32.320442 376.546653,33.8121547 380.717508,33.8121547 C384.888363,33.8121547 388.372253,32.320442 391.218248,29.2872928 C394.064243,26.2541436 395.487241,22.5248619 395.487241,18 C395.487241,13.4751381 394.064243,9.74585635 391.218248,6.71270718 C388.372253,3.67955801 384.888363,2.1878453 380.717508,2.1878453 C376.546653,2.1878453 373.062763,3.67955801 370.216768,6.71270718 C367.370773,9.74585635 365.947775,13.4751381 365.947775,18 C365.947775,22.5248619 367.370773,26.2541436 370.216768,29.2872928 Z M380.717508,36 C375.859689,36 371.786972,34.3093923 368.499357,30.878453 C365.260811,27.4475138 363.641538,23.1712707 363.641538,18 C363.641538,12.878453 365.260811,8.60220994 368.499357,5.17127072 C371.786972,1.74033149 375.859689,0 380.717508,0 C385.575327,0 389.598975,1.74033149 392.88659,5.17127072 C396.174205,8.60220994 397.793478,12.878453 397.793478,18 C397.793478,23.121547 396.174205,27.4475138 392.88659,30.878453 C389.598975,34.3093923 385.575327,36 380.717508,36 Z M416.4798,36 C420.552517,36 423.889201,34.6574586 426.391713,31.9723757 C428.894226,29.2375691 430.170017,25.4585635 430.170017,20.5359116 L430.170017,0.596685083 L427.912849,0.596685083 L427.912849,20.5359116 C427.912849,28.8895028 423.545718,33.8121547 416.4798,33.8121547 C409.364812,33.8121547 404.997682,28.8895028 404.997682,20.5359116 L404.997682,0.596685083 L402.740513,0.596685083 L402.740513,20.5359116 C402.740513,25.4585635 404.016304,29.2872928 406.518817,31.9723757 C409.02133,34.6574586 412.358014,36 416.4798,36 Z M438.846287,35.4033149 L436.589119,35.4033149 L436.589119,0.596685083 L451.800471,0.596685083 C458.326632,0.596685083 462.252143,4.22651934 462.252143,9.74585635 C462.252143,14.718232 459.160803,18.2486188 453.714158,18.8950276 L465,35.4033149 L462.350281,35.4033149 L451.113507,19.0441989 L438.846287,19.0441989 L438.846287,35.4033149 Z M438.846287,2.73480663 L438.846287,16.9060773 L451.604196,16.9060773 C456.903635,16.9060773 459.994974,14.3701657 459.994974,9.79558011 C459.994974,5.37016575 456.903635,2.73480663 451.604196,2.73480663 L438.846287,2.73480663 Z" id="Contour-Copy" fill="#25D0FE"></path>
            </g>
        </g>
    </g>
</svg>